<svg width="26" height="29" viewBox="0 0 26 29" fill="none"
                        xmlns="http://www.w3.org/2000/svg">
    <g clip-path="url(#clip0_40_205)">
        <path
                                d="M25.5001 11.9676C23.0433 11.9735 20.6468 11.2073 18.6491 9.77734V19.7506C18.6484 21.5977 18.0838 23.4006 17.0308 24.9182C15.9778 26.4359 14.4866 27.5958 12.7565 28.243C11.0265 28.8903 9.14009 28.9939 7.34956 28.5401C5.55903 28.0862 3.94972 27.0966 2.73683 25.7034C1.52394 24.3103 0.765273 22.5801 0.562275 20.7441C0.359278 18.9081 0.721626 17.054 1.60087 15.4295C2.48011 13.805 3.83434 12.4877 5.48247 11.6537C7.13061 10.8196 8.99409 10.5086 10.8237 10.7623V15.7785C9.98649 15.5151 9.08743 15.523 8.25495 15.8011C7.42248 16.0792 6.69916 16.6132 6.18829 17.3269C5.67743 18.0406 5.40514 18.8975 5.41031 19.7752C5.41548 20.6529 5.69784 21.5065 6.21708 22.2141C6.73632 22.9217 7.46588 23.4472 8.30157 23.7154C9.13726 23.9837 10.0364 23.9811 10.8704 23.7078C11.7045 23.4347 12.431 22.9049 12.946 22.1942C13.4611 21.4835 13.7384 20.6283 13.7384 19.7506V0.253906H18.6491C18.6457 0.668605 18.6804 1.08274 18.7529 1.49107C18.9235 2.40261 19.2783 3.26976 19.7956 4.03947C20.3129 4.80919 20.9817 5.46528 21.7612 5.96763C22.8703 6.70094 24.1705 7.0918 25.5001 7.09152V11.9676Z"
                                fill="black" />
    </g>
    <defs>
        <clipPath id="clip0_40_205">
            <rect width="25" height="28.5714" fill="white"
                                    transform="translate(0.5 0.253906)" />
        </clipPath>
    </defs>
</svg>
