<svg width="26" height="26" viewBox="0 0 26 26" fill="none"
                        xmlns="http://www.w3.org/2000/svg">
    <g clip-path="url(#clip0_40_214)">
        <path
                                d="M22.9302 7.5998C22.946 7.82188 22.946 8.04399 22.946 8.26606C22.946 15.0395 17.7906 22.8441 8.36802 22.8441C5.46509 22.8441 2.76841 22.0033 0.5 20.544C0.912451 20.5916 1.30898 20.6074 1.7373 20.6074C4.13257 20.6074 6.33755 19.7984 8.09834 18.4184C5.8458 18.3708 3.95811 16.8955 3.30771 14.865C3.625 14.9126 3.94224 14.9443 4.27539 14.9443C4.7354 14.9443 5.19546 14.8809 5.62373 14.7699C3.27603 14.2939 1.51519 12.2318 1.51519 9.74131V9.67788C2.19727 10.0586 2.99048 10.2965 3.83115 10.3282C2.45107 9.40815 1.54692 7.83774 1.54692 6.06108C1.54692 5.10933 1.80068 4.23687 2.24487 3.47544C4.76709 6.58457 8.55835 8.61499 12.8096 8.83711C12.7303 8.4564 12.6827 8.05986 12.6827 7.66328C12.6827 4.83965 14.9669 2.53955 17.8064 2.53955C19.2816 2.53955 20.6141 3.1582 21.55 4.15757C22.708 3.9355 23.8184 3.50718 24.802 2.92026C24.4212 4.11001 23.6122 5.10938 22.5494 5.74385C23.5805 5.63286 24.5799 5.34727 25.4999 4.95073C24.802 5.96592 23.9295 6.87007 22.9302 7.5998Z"
                                fill="#0ea5e9" />
    </g>
    <defs>
        <clipPath id="clip0_40_214">
            <rect width="25" height="25" fill="#0ea5e9"
                                    transform="translate(0.5 0.0395508)" />
        </clipPath>
    </defs>
</svg>
