<svg width="50" height="51" viewBox="0 0 50 51" fill="none"
                        xmlns="http://www.w3.org/2000/svg">
    <rect y="0.539551" width="50" height="50" rx="25" fill="#22c55e" />
    <g clip-path="url(#clip0_40_179)">
        <path
                                d="M33.7556 16.6724C31.4174 14.3286 28.3036 13.0396 24.9944 13.0396C18.1641 13.0396 12.606 18.5976 12.606 25.4279C12.606 27.6099 13.1752 29.7416 14.2578 31.6221L12.5 38.0396L19.0681 36.3152C20.8761 37.3029 22.9129 37.8219 24.9888 37.8219H24.9944C31.8192 37.8219 37.5 32.2639 37.5 25.4335C37.5 22.1244 36.0938 19.0161 33.7556 16.6724ZM24.9944 35.7349C23.1417 35.7349 21.3281 35.2382 19.7489 34.3007L19.375 34.0775L15.4799 35.0987L16.5179 31.2985L16.2723 30.9079C15.24 29.2672 14.6987 27.3755 14.6987 25.4279C14.6987 19.7527 19.3192 15.1322 25 15.1322C27.7511 15.1322 30.3348 16.2036 32.2768 18.1512C34.2188 20.0987 35.4129 22.6824 35.4074 25.4335C35.4074 31.1143 30.6696 35.7349 24.9944 35.7349ZM30.6417 28.0228C30.3348 27.8666 28.8114 27.1188 28.5268 27.0183C28.2422 26.9123 28.0357 26.8621 27.8292 27.1746C27.6228 27.4871 27.0312 28.1791 26.8471 28.3911C26.6685 28.5976 26.4844 28.6255 26.1775 28.4692C24.3583 27.5596 23.1641 26.8454 21.9643 24.7862C21.6462 24.2393 22.2824 24.2784 22.8739 23.0954C22.9743 22.8889 22.9241 22.7103 22.846 22.5541C22.7679 22.3978 22.1484 20.8744 21.8917 20.255C21.6406 19.6523 21.3839 19.736 21.1942 19.7248C21.0156 19.7137 20.8092 19.7137 20.6027 19.7137C20.3962 19.7137 20.0614 19.7918 19.7768 20.0987C19.4922 20.4112 18.6942 21.159 18.6942 22.6824C18.6942 24.2058 19.8047 25.6791 19.9554 25.8855C20.1116 26.092 22.1373 29.217 25.2455 30.5619C27.2098 31.4101 27.9799 31.4826 28.9621 31.3375C29.5592 31.2483 30.7924 30.5898 31.0491 29.8643C31.3058 29.1389 31.3058 28.5195 31.2277 28.3911C31.1551 28.2516 30.9487 28.1735 30.6417 28.0228Z"
                                fill="white" />
    </g>
    <defs>
        <clipPath id="clip0_40_179">
            <rect width="25" height="28.5714" fill="white"
                                    transform="translate(12.5 11.2539)" />
        </clipPath>
    </defs>
</svg>
