<svg width="30" height="27" viewBox="0 0 30 27" fill="none"
                        xmlns="http://www.w3.org/2000/svg">
    <path
                            d="M28.6279 6.66887C28.3008 5.4371 27.3369 4.467 26.1131 4.13778C23.8949 3.53955 15.0001 3.53955 15.0001 3.53955C15.0001 3.53955 6.10528 3.53955 3.887 4.13778C2.6632 4.46705 1.69934 5.4371 1.37221 6.66887C0.777832 8.90153 0.777832 13.5598 0.777832 13.5598C0.777832 13.5598 0.777832 18.218 1.37221 20.4506C1.69934 21.6824 2.6632 22.6121 3.887 22.9413C6.10528 23.5396 15.0001 23.5396 15.0001 23.5396C15.0001 23.5396 23.8949 23.5396 26.1131 22.9413C27.3369 22.6121 28.3008 21.6824 28.6279 20.4506C29.2223 18.218 29.2223 13.5598 29.2223 13.5598C29.2223 13.5598 29.2223 8.90153 28.6279 6.66887ZM12.091 17.7891V9.33044L19.5253 13.5599L12.091 17.7891Z"
                            fill="#dc2626" />
</svg>
